<?xml version="1.0" encoding="UTF-8"?>
<!DOCTYPE svg PUBLIC "-//W3C//DTD SVG 1.1//EN" "http://www.w3.org/Graphics/SVG/1.1/DTD/svg11.dtd">
<!-- Creator: CorelDRAW 2018 (64-Bit Evaluation Version) -->
<svg xmlns="http://www.w3.org/2000/svg" xml:space="preserve" width="0.426661in" height="0.426661in" version="1.1" style="shape-rendering:geometricPrecision; text-rendering:geometricPrecision; image-rendering:optimizeQuality; fill-rule:evenodd; clip-rule:evenodd"
viewBox="0 0 2.78 2.78"
 xmlns:xlink="http://www.w3.org/1999/xlink">
 <defs>
  <style type="text/css">
   <![CDATA[
    .fil0 {fill:white}
   ]]>
  </style>
 </defs>
 <g id="Layer_x0020_1">
  <metadata id="CorelCorpID_0Corel-Layer"/>
  <path class="fil0" d="M1.79 2.47c0,-0.01 0.04,-0.1 0.05,-0.12 0.05,-0.1 0.09,-0.23 0.12,-0.33 0,-0.01 0.01,-0.02 0.01,-0.04 0,-0.01 0.01,-0.03 0.01,-0.04 0.03,0 0.05,-0 0.08,-0 0.04,0 0.22,-0 0.24,0 0.03,0 0.06,-0 0.09,0 -0,0.02 -0.06,0.1 -0.08,0.13l-0.05 0.06c-0.04,0.05 -0.09,0.1 -0.14,0.14l-0.14 0.1c-0.05,0.03 -0.11,0.06 -0.16,0.08 -0.01,0 -0.02,0.01 -0.03,0.01zm0.98 -1.16l0 0.14c-0,0.06 -0.01,0.12 -0.01,0.16 -0.01,0.05 -0.02,0.09 -0.03,0.13 -0.02,0.07 -0.06,0.18 -0.09,0.24l-0.06 0.11c-0.05,0.08 -0.06,0.09 -0.12,0.17l-0.14 0.15c-0.06,0.06 -0.17,0.13 -0.24,0.17 -0.02,0.01 -0.04,0.02 -0.05,0.03 -0.02,0.01 -0.03,0.02 -0.05,0.03 -0.02,0.01 -0.04,0.02 -0.06,0.03 -0.01,0 -0.02,0.01 -0.03,0.01 -0.06,0.02 -0.09,0.03 -0.15,0.05 -0.12,0.03 -0.2,0.04 -0.31,0.04l-0.11 0c-0.3,0 -0.63,-0.14 -0.85,-0.34l-0.07 -0.07c-0.06,-0.05 -0.15,-0.17 -0.19,-0.23l-0.06 -0.1c-0.01,-0.02 -0.02,-0.04 -0.03,-0.05 -0.03,-0.06 -0.07,-0.18 -0.09,-0.24 -0.04,-0.15 -0.04,-0.24 -0.04,-0.39 0,-0.1 0.02,-0.21 0.04,-0.3 0.02,-0.07 0.03,-0.12 0.06,-0.19 0.04,-0.1 0.09,-0.18 0.15,-0.27 0.02,-0.03 0.09,-0.11 0.11,-0.14 0.01,-0.01 0.01,-0.01 0.02,-0.02 0.03,-0.03 0.08,-0.08 0.12,-0.11l0.03 -0.03c0.03,-0.02 0.07,-0.05 0.1,-0.07 0.19,-0.13 0.47,-0.22 0.69,-0.22 0.26,0 0.38,0.01 0.62,0.11 0.01,0 0.02,0.01 0.03,0.01 0.13,0.05 0.3,0.17 0.4,0.27l0.09 0.1c0.05,0.05 0.09,0.12 0.13,0.18 0.02,0.04 0.04,0.07 0.06,0.11 0.04,0.07 0.07,0.16 0.09,0.24 0.01,0.04 0.02,0.09 0.03,0.14 0.01,0.04 0.01,0.1 0.01,0.16zm-2.39 0.63l0.08 -0c0.03,-0 0.26,-0 0.3,-0 0.01,0 0.01,0 0.01,0.01 0,0.01 0,0.01 0,0.02l0.03 0.1c0.02,0.07 0.07,0.19 0.09,0.26 0.01,0.02 0.02,0.04 0.03,0.06 0.01,0.02 0.02,0.04 0.03,0.07 -0.03,-0.01 -0.05,-0.02 -0.09,-0.04 -0.08,-0.04 -0.14,-0.08 -0.2,-0.14l-0.07 -0.06c-0.01,-0.01 -0.02,-0.02 -0.03,-0.03 -0.05,-0.05 -0.14,-0.17 -0.17,-0.23zm1.08 0.59c-0.03,0 -0.15,0 -0.18,-0.01 -0.01,-0 -0.02,-0.02 -0.03,-0.03l-0.05 -0.09c-0.02,-0.04 -0.05,-0.1 -0.07,-0.13 -0,-0.01 -0.01,-0.01 -0.01,-0.02 -0.03,-0.06 -0.08,-0.2 -0.1,-0.27 -0,-0.01 -0.01,-0.03 -0.01,-0.05 0.03,-0.01 0.32,-0.01 0.36,-0.01 0.12,0 0.25,0 0.37,0 -0,0.01 -0.02,0.07 -0.02,0.08 -0.02,0.06 -0.04,0.1 -0.06,0.16l-0.03 0.08c-0.02,0.05 -0.05,0.1 -0.08,0.14l-0.07 0.12c-0,0.01 -0.01,0.01 -0.01,0.01zm0.33 -0.83c-0.04,0 -0.54,0 -0.57,-0 -0.06,-0.01 -0.17,0 -0.21,-0 -0.05,-0.01 -0.05,0.01 -0.05,-0.02 -0.03,-0.2 -0.02,-0.26 -0.01,-0.45 0,-0.01 0,-0.01 0,-0.02l0.02 -0.15 0.83 0 0.01 0.13c0,0.02 -0,0.05 0,0.07 0,0.03 -0,0.19 -0,0.23 0,0.03 -0.01,0.14 -0.01,0.17 -0,0.01 -0.01,0.02 -0.01,0.04zm0.25 -0.64l0.46 0 0.02 0.07c0.01,0.02 0.01,0.04 0.01,0.07 0.03,0.15 0.02,0.32 -0.02,0.47 -0,0.01 -0.01,0.02 -0.01,0.03 -0.08,0 -0.15,-0 -0.23,-0 -0.05,0 -0.2,0 -0.23,-0.01 0,-0.03 0.02,-0.14 0.02,-0.18 -0,-0.05 0.01,-0.18 0,-0.22 -0,-0.01 -0,-0.12 -0.01,-0.15 -0,-0.01 -0.01,-0.06 -0.01,-0.07zm-1.33 0.25c0,0.04 -0,0.2 0,0.24l0.01 0.15 -0.44 0.01c-0.01,0 -0.01,-0.02 -0.01,-0.03 -0,-0.01 -0.01,-0.02 -0.01,-0.04 -0.04,-0.17 -0.03,-0.37 0.01,-0.54 0.01,-0.05 0.02,-0.03 0.07,-0.04 0.04,-0.01 0.34,-0 0.4,-0 -0,0.01 -0.02,0.19 -0.02,0.22 -0,0.01 0,0.02 0,0.03zm0.59 -1.08l0.18 0c0.01,0 0.01,0.02 0.02,0.03 0.03,0.04 0.08,0.13 0.1,0.17 0.05,0.09 0.13,0.29 0.15,0.39l-0.68 0c-0.02,0 -0.03,-0 -0.05,-0l0.1 -0.28c0.02,-0.05 0.07,-0.14 0.09,-0.18l0.06 -0.1c0,-0.01 0.02,-0.03 0.03,-0.03zm0.5 0.08c0.02,0.01 0.03,0.01 0.05,0.02 0.14,0.07 0.18,0.09 0.29,0.19 0.01,0.01 0.01,0.01 0.02,0.02 0.01,0.01 0.01,0.01 0.02,0.02l0.1 0.11c0.02,0.03 0.04,0.05 0.06,0.08 0.01,0.01 0.02,0.03 0.03,0.04 0.01,0.02 0.02,0.03 0.03,0.04 -0.02,0 -0.03,0 -0.05,0l-0.1 -0c-0.02,-0 -0.03,0 -0.05,0 -0.07,-0 -0.14,-0 -0.2,-0l-0.04 -0.14c-0.01,-0.02 -0.01,-0.04 -0.02,-0.07 -0.01,-0.02 -0.02,-0.04 -0.02,-0.07 -0.02,-0.05 -0.03,-0.08 -0.05,-0.13l-0.05 -0.12zm-1.04 0.52c-0.06,0 -0.19,0 -0.24,-0l-0.12 -0c-0.02,-0 -0.02,-0 -0.04,-0 0,-0.01 0.01,-0.02 0.01,-0.02l0.04 -0.06c0.04,-0.05 0.08,-0.11 0.13,-0.15 0.01,-0.01 0.01,-0.01 0.02,-0.02 0.02,-0.02 0.04,-0.04 0.07,-0.07l0.06 -0.05c0.01,-0.01 0.03,-0.02 0.04,-0.03 0.04,-0.03 0.19,-0.11 0.23,-0.12l-0.03 0.06c-0.01,0.02 -0.02,0.04 -0.03,0.06 -0.02,0.04 -0.04,0.09 -0.05,0.13l-0.05 0.13c-0.01,0.02 -0.01,0.04 -0.02,0.07 -0.01,0.02 -0.01,0.07 -0.02,0.07z"/>
 </g>
</svg>
