<?xml version="1.0" encoding="UTF-8"?>
<!DOCTYPE svg PUBLIC "-//W3C//DTD SVG 1.1//EN" "http://www.w3.org/Graphics/SVG/1.1/DTD/svg11.dtd">
<!-- Creator: CorelDRAW 2018 (64-Bit Evaluation Version) -->
<svg xmlns="http://www.w3.org/2000/svg" xml:space="preserve" width="0.638921in" height="0.63198in" version="1.1" style="shape-rendering:geometricPrecision; text-rendering:geometricPrecision; image-rendering:optimizeQuality; fill-rule:evenodd; clip-rule:evenodd"
viewBox="0 0 82.64 81.74"
 xmlns:xlink="http://www.w3.org/1999/xlink">
 <defs>
  <style type="text/css">
   <![CDATA[
    .str0 {stroke:#0BAAEE;stroke-width:0.9;stroke-miterlimit:2.61313}
    .fil0 {fill:#0BAAEE}
   ]]>
  </style>
 </defs>
 <g id="Layer_x0020_1">
  <metadata id="CorelCorpID_0Corel-Layer"/>
  <g id="_2044938161760">
   <path class="fil0 str0" d="M0.45 46.26c0,20.02 16.96,35.03 30.54,35.03 10.86,0 18.98,0.24 28.54,-9.19 4.58,-4.52 9.41,-10.59 10.08,-18.66 -3.97,0.09 -6.35,0.9 -11.68,0.9 -3.19,13.71 -24.97,22.73 -37.98,10.14 -15.97,-15.46 -5,-36.88 7.44,-39.78 0,-5.66 0.75,-8.1 1.8,-12.58 -16.43,3.83 -28.74,16.91 -28.74,34.13z"/>
   <path class="fil0 str0" d="M47.16 24.7c0,-19.76 23.35,-14.77 23.35,-3.59 0,7.5 -2.65,14.32 -11.68,14.2 -5.38,-0.07 -11.67,-4.82 -11.67,-10.61zm-11.68 -1.8c0,6.72 2.94,12.39 6.48,15.97 15.28,15.46 40.23,5.63 40.23,-16.87 0,-10.67 -10.11,-21.56 -20.66,-21.56 -7.91,0 -13.74,0.17 -19.78,7.17 -2.82,3.26 -6.27,9.29 -6.27,15.29z"/>
  </g>
 </g>
</svg>
