<?xml version="1.0" encoding="UTF-8"?>
<!DOCTYPE svg PUBLIC "-//W3C//DTD SVG 1.1//EN" "http://www.w3.org/Graphics/SVG/1.1/DTD/svg11.dtd">
<!-- Creator: CorelDRAW 2018 (64-Bit Evaluation Version) -->
<svg xmlns="http://www.w3.org/2000/svg" xml:space="preserve" width="0.631976in" height="0.625039in" version="1.1" style="shape-rendering:geometricPrecision; text-rendering:geometricPrecision; image-rendering:optimizeQuality; fill-rule:evenodd; clip-rule:evenodd"
viewBox="0 0 80.74 79.85"
 xmlns:xlink="http://www.w3.org/1999/xlink">
 <defs>
  <style type="text/css">
   <![CDATA[
    .fil0 {fill:#FEFFFF}
   ]]>
  </style>
 </defs>
 <g id="Layer_x0020_1">
  <metadata id="CorelCorpID_0Corel-Layer"/>
  <g id="_2044940707360">
   <path class="fil0" d="M-0 45.25c0,19.77 16.75,34.6 30.16,34.6 10.73,0 18.75,0.24 28.19,-9.07 4.52,-4.46 9.3,-10.46 9.96,-18.43 -3.93,0.09 -6.27,0.89 -11.53,0.89 -3.16,13.55 -24.67,22.45 -37.51,10.01 -15.77,-15.27 -4.94,-36.43 7.35,-39.29 0,-5.59 0.74,-8 1.77,-12.42 -16.23,3.78 -28.39,16.7 -28.39,33.71z"/>
   <path class="fil0" d="M46.13 23.95c0,-19.52 23.07,-14.59 23.07,-3.55 0,7.41 -2.61,14.15 -11.54,14.03 -5.31,-0.07 -11.53,-4.76 -11.53,-10.48zm-11.53 -1.77c0,6.64 2.91,12.24 6.4,15.78 15.09,15.27 39.73,5.56 39.73,-16.67 0,-10.54 -9.99,-21.29 -20.41,-21.29 -7.81,0 -13.57,0.17 -19.54,7.08 -2.78,3.22 -6.19,9.17 -6.19,15.1z"/>
  </g>
 </g>
</svg>
