<?xml version="1.0" encoding="UTF-8"?>
<!DOCTYPE svg PUBLIC "-//W3C//DTD SVG 1.1//EN" "http://www.w3.org/Graphics/SVG/1.1/DTD/svg11.dtd">
<!-- Creator: CorelDRAW 2018 (64-Bit Evaluation Version) -->
<svg xmlns="http://www.w3.org/2000/svg" xml:space="preserve" width="1.18882in" height="0.928961in" version="1.1" style="shape-rendering:geometricPrecision; text-rendering:geometricPrecision; image-rendering:optimizeQuality; fill-rule:evenodd; clip-rule:evenodd"
viewBox="0 0 276.23 215.85"
 xmlns:xlink="http://www.w3.org/1999/xlink">
 <defs>
  <style type="text/css">
   <![CDATA[
    .fil0 {fill:#0AA8ED}
   ]]>
  </style>
 </defs>
 <g id="Layer_x0020_1">
  <metadata id="CorelCorpID_0Corel-Layer"/>
  <g id="_2170746319520">
   <path class="fil0" d="M-0 70.2c0,57.72 31.86,36.33 8.68,69.3 -3.3,4.69 -2.16,1.92 -4.96,7.23 -0.38,0.71 -6.77,6.2 2.64,6.34 0.24,0 5.73,-0.21 5.74,-0.21 18.34,-1.73 22.19,-10.03 33.89,-10.03 8.29,0 47,22.76 96.91,2.5 43.22,-17.54 73.25,-60.55 44.26,-102.52 -18.05,-26.13 -56.32,-42.8 -87.92,-42.8 -7.57,0 -27.37,3.79 -35.32,5.83 -28.37,7.29 -63.93,38.02 -63.93,64.37z"/>
   <path class="fil0" d="M87.15 171.87c24.98,37.3 79.23,51.54 122.47,40.16 33.83,-8.9 5.67,-12.77 40.75,-0.04 8.69,3.15 14.68,3.45 25.6,3.45 -24.46,-36.53 -18.69,-26.54 -6.83,-47.98 13.69,-24.75 6.63,-52.48 -13.07,-72.52 -13.67,-13.91 -21.23,-15.77 -38.2,-24.74 0,29.12 -6.09,45.12 -22.47,64.68 -23.44,27.98 -63.99,36.99 -108.25,36.99z"/>
  </g>
 </g>
</svg>
