<?xml version="1.0" encoding="UTF-8"?>
<!DOCTYPE svg PUBLIC "-//W3C//DTD SVG 1.1//EN" "http://www.w3.org/Graphics/SVG/1.1/DTD/svg11.dtd">
<!-- Creator: CorelDRAW 2018 (64-Bit Evaluation Version) -->
<svg xmlns="http://www.w3.org/2000/svg" xml:space="preserve" width="1.20861in" height="0.938575in" version="1.1" style="shape-rendering:geometricPrecision; text-rendering:geometricPrecision; image-rendering:optimizeQuality; fill-rule:evenodd; clip-rule:evenodd"
viewBox="0 0 300.72 233.53"
 xmlns:xlink="http://www.w3.org/1999/xlink">
 <defs>
  <style type="text/css">
   <![CDATA[
    .fil0 {fill:white}
   ]]>
  </style>
 </defs>
 <g id="Layer_x0020_1">
  <metadata id="CorelCorpID_0Corel-Layer"/>
  <g id="_2170176103040">
   <path class="fil0" d="M-0 80.58c0,30.77 18.14,46.54 18.14,49.25 0,15.8 -14.43,20.35 -18.14,36.29 36.12,0 42.6,-12.41 51.54,-12.06 3.68,0.14 13.14,5.76 22.53,7.98 111.76,26.48 190.71,-77.1 110.07,-138.58 -40.37,-30.78 -111.82,-31.66 -150.89,-0.36 -14.31,11.47 -33.25,32.79 -33.25,57.48z"/>
   <path class="fil0" d="M93.32 181.68c7.9,29.59 63.1,51.84 95.91,51.84 23.73,0 36.96,-4.64 54.49,-10.62 17.36,-5.93 38.53,18.4 56.98,8.03l-20.74 -31.11c5.05,-7.55 10.2,-12.92 14.19,-22.1 8.99,-20.7 8.66,-35.47 -0.37,-56.52l-10.17 -15.75c-11.28,-12.44 -32.42,-28.47 -50.31,-32.64 0,38.64 -7.69,61.48 -41.4,85.62 -23.64,16.93 -77.66,33.29 -98.58,23.25z"/>
  </g>
 </g>
</svg>
